<svg width="48" height="48" viewBox="0 0 48 48" fill="none" xmlns="http://www.w3.org/2000/svg">
<rect width="48" height="48" rx="24" fill="white"/>
<path d="M34.292 28.292C34.3095 28.292 34.3182 28.2978 34.323 28.3026C34.3278 28.3074 34.3337 28.3161 34.3337 28.3337V29.417C34.3337 30.7819 33.3464 31.9102 32.0449 32.1287C31.7821 30.318 30.2146 28.917 28.3337 28.917C26.4395 28.917 24.8631 30.3378 24.617 32.167H23.3836C23.1375 30.3378 21.5612 28.917 19.667 28.917C17.786 28.917 16.2185 30.318 15.9557 32.1287C14.6542 31.9102 13.667 30.7819 13.667 29.417V27.2503C13.667 26.9306 13.9306 26.667 14.2503 26.667H24.542C26.3131 26.667 27.7503 25.2298 27.7503 23.4587V17.5003C27.7503 17.1806 28.014 16.917 28.3337 16.917H29.2437C29.8405 16.917 30.3925 17.2402 30.6954 17.7608C30.6957 17.7613 30.696 17.7617 30.6963 17.7622L31.2023 18.6478C29.6107 18.8365 28.3753 20.1916 28.3753 21.8337V25.0837C28.3753 26.8548 29.8125 28.292 31.5837 28.292H34.292Z" fill="#05422C" stroke="#05422C"/>
<path d="M21.3333 32.6667C21.3333 33.5871 20.5871 34.3333 19.6667 34.3333C18.7462 34.3333 18 33.5871 18 32.6667C18 31.7462 18.7462 31 19.6667 31C20.5871 31 21.3333 31.7462 21.3333 32.6667Z" fill="#C3D2CC" stroke="#C3D2CC"/>
<path d="M30.0003 32.6667C30.0003 33.5871 29.2541 34.3333 28.3337 34.3333C27.4132 34.3333 26.667 33.5871 26.667 32.6667C26.667 31.7462 27.4132 31 28.3337 31C29.2541 31 30.0003 31.7462 30.0003 32.6667Z" fill="#C3D2CC" stroke="#C3D2CC"/>
<path d="M34.8333 24.5742V26.1667H31.5833C30.9875 26.1667 30.5 25.6792 30.5 25.0833V21.8333C30.5 21.2375 30.9875 20.75 31.5833 20.75H32.9808L34.5517 23.5017C34.7358 23.8267 34.8333 24.195 34.8333 24.5742Z" fill="#C3D2CC"/>
<path d="M25.1693 13.167H17.1635C15.2243 13.167 13.5993 14.5537 13.2418 16.3953H17.976C18.3877 16.3953 18.7127 16.7312 18.7127 17.1428C18.7127 17.5545 18.3877 17.8795 17.976 17.8795H13.166V19.3745H15.9827C16.3943 19.3745 16.7302 19.7103 16.7302 20.122C16.7302 20.5337 16.3943 20.8587 15.9827 20.8587H13.166V22.3537H14.0002C14.4118 22.3537 14.7477 22.6895 14.7477 23.1012C14.7477 23.5128 14.4118 23.8378 14.0002 23.8378H13.166V24.087C13.166 24.6828 13.6535 25.1703 14.2493 25.1703H24.1618C25.2668 25.1703 26.166 24.2712 26.166 23.1662V14.1637C26.166 13.6112 25.7218 13.167 25.1693 13.167Z" fill="#05422C"/>
<path d="M13.2422 16.3955H13.0797H12.018C11.6063 16.3955 11.2705 16.7313 11.2705 17.143C11.2705 17.5547 11.6063 17.8797 12.018 17.8797H13.0038H13.1663V17.1647C13.1663 16.9047 13.1988 16.6447 13.2422 16.3955Z" fill="#05422C"/>
<path d="M13.0038 19.374H12.018C11.6063 19.374 11.2705 19.7099 11.2705 20.1215C11.2705 20.5332 11.6063 20.8582 12.018 20.8582H13.0038H13.1663V19.374H13.0038Z" fill="#05422C"/>
<path d="M13.0038 22.3535H12.018C11.6063 22.3535 11.2705 22.6893 11.2705 23.101C11.2705 23.5127 11.6063 23.8377 12.018 23.8377H13.0038H13.1663V22.3535H13.0038Z" fill="#05422C"/>
</svg>
