<svg width="49" height="48" viewBox="0 0 49 48" fill="none" xmlns="http://www.w3.org/2000/svg">
<rect x="0.333496" width="48" height="48" rx="24" fill="white"/>
<path d="M22.1563 30.4787C26.9368 30.4787 30.8122 26.6033 30.8122 21.8228C30.8122 17.0423 26.9368 13.167 22.1563 13.167C17.3758 13.167 13.5005 17.0423 13.5005 21.8228C13.5005 26.6033 17.3758 30.4787 22.1563 30.4787Z" fill="#05422C" stroke="#05422C" stroke-width="1.5" stroke-linecap="round" stroke-linejoin="round"/>
<path d="M25.395 32.5363C26.37 33.9122 27.9625 34.8113 29.7825 34.8113C32.74 34.8113 35.145 32.4063 35.145 29.4488C35.145 27.6505 34.2567 26.058 32.9025 25.083" stroke="#C3D2CC" stroke-width="1.5" stroke-linecap="round" stroke-linejoin="round"/>
<path d="M20.0005 23.3498C20.0005 24.184 20.6505 24.8665 21.4413 24.8665H23.0663C23.7597 24.8665 24.323 24.2706 24.323 23.5448C24.323 22.754 23.9763 22.4723 23.4672 22.2881L20.8672 21.3781C20.3472 21.194 20.0005 20.9123 20.0005 20.1215C20.0005 19.3956 20.5638 18.7998 21.2572 18.7998H22.8822C23.6838 18.8106 24.3338 19.4823 24.3338 20.3165" stroke="white" stroke-width="1.5" stroke-linecap="round" stroke-linejoin="round"/>
<path d="M22.1665 24.9209V25.7226" stroke="white" stroke-width="1.5" stroke-linecap="round" stroke-linejoin="round"/>
<path d="M22.1665 17.9443V18.7893" stroke="white" stroke-width="1.5" stroke-linecap="round" stroke-linejoin="round"/>
</svg>
