<svg width="16" height="16" viewBox="0 0 16 16" fill="none" xmlns="http://www.w3.org/2000/svg">
<rect width="16" height="16" rx="8" fill="#EB2606"/>
<path d="M7.99289 11.6C7.45956 11.6 6.99956 11.4533 6.61289 11.16C6.23289 10.8667 5.93956 10.4533 5.73289 9.92C5.52622 9.38 5.42289 8.74 5.42289 8C5.42289 7.26 5.52622 6.62333 5.73289 6.09C5.93956 5.55 6.23289 5.13333 6.61289 4.84C6.99956 4.54667 7.45956 4.4 7.99289 4.4C8.52622 4.4 8.98622 4.54667 9.37289 4.84C9.75956 5.13333 10.0562 5.55 10.2629 6.09C10.4696 6.62333 10.5729 7.26 10.5729 8C10.5729 8.74 10.4696 9.38 10.2629 9.92C10.0562 10.4533 9.75956 10.8667 9.37289 11.16C8.98622 11.4533 8.52622 11.6 7.99289 11.6ZM7.99289 10.62C8.47956 10.62 8.85622 10.3933 9.12289 9.94C9.38956 9.48 9.52289 8.83333 9.52289 8C9.52289 7.16667 9.38956 6.52333 9.12289 6.07C8.85622 5.61 8.47956 5.38 7.99289 5.38C7.50622 5.38 7.12956 5.61 6.86289 6.07C6.59622 6.52333 6.46289 7.16667 6.46289 8C6.46289 8.83333 6.59622 9.48 6.86289 9.94C7.12956 10.3933 7.50622 10.62 7.99289 10.62Z" fill="white"/>
</svg>
