<svg width="13" height="13" viewBox="0 0 13 13" fill="none" xmlns="http://www.w3.org/2000/svg">
<path d="M7.36544 2.25531L8.24544 4.01531C8.36544 4.26031 8.68544 4.49531 8.95544 4.54031L10.5504 4.80531C11.5704 4.97531 11.8104 5.71531 11.0754 6.44531L9.83544 7.68531C9.62544 7.89531 9.51044 8.30031 9.57544 8.59031L9.93044 10.1253C10.2104 11.3403 9.56544 11.8103 8.49044 11.1753L6.99544 10.2903C6.72544 10.1303 6.28044 10.1303 6.00544 10.2903L4.51044 11.1753C3.44044 11.8103 2.79044 11.3353 3.07044 10.1253L3.42544 8.59031C3.49044 8.30031 3.37544 7.89531 3.16544 7.68531L1.92544 6.44531C1.19544 5.71531 1.43044 4.97531 2.45044 4.80531L4.04544 4.54031C4.31044 4.49531 4.63044 4.26031 4.75044 4.01531L5.63044 2.25531C6.11044 1.30031 6.89044 1.30031 7.36544 2.25531Z" fill="#F2BC1B" stroke="#F2BC1B" stroke-width="1.5" stroke-linecap="round" stroke-linejoin="round"/>
</svg>
